<svg width="692" height="241" viewBox="0 0 692 241" fill="none" xmlns="http://www.w3.org/2000/svg">
<mask id="mask0_253_221" style="mask-type:alpha" maskUnits="userSpaceOnUse" x="0" y="0" width="692" height="241">
<rect width="692" height="241" fill="#D9D9D9"/>
</mask>
<g mask="url(#mask0_253_221)">
<path d="M172.116 206.259L172.116 137.704L69.284 137.704L69.284 206.259L172.116 206.259ZM172.116 103.427L172.116 34.8721L69.284 34.8721L69.284 103.427L172.116 103.427ZM0.72929 240.536L0.729294 0.53621L206.393 0.536213L206.393 34.8721L240.729 34.8722L240.729 103.427L206.393 103.427L206.393 137.704L240.729 137.704L240.729 206.259L206.393 206.259L206.393 240.536L0.72929 240.536Z" fill="#333333"/>
<path d="M260.548 240.536L260.548 206.259L329.103 206.259L329.103 34.8721L260.548 34.8721L260.548 0.536212L466.212 0.536208L466.212 34.8721L397.657 34.8722L397.657 206.259L466.212 206.259L466.212 240.536L260.548 240.536Z" fill="#333333"/>
<path d="M554.703 240.536L554.703 34.8721L486.148 34.8722L486.148 0.536214L691.812 0.536224L691.812 34.8722L623.257 34.8722L623.257 240.536L554.703 240.536Z" fill="#333333"/>
</g>
</svg>
