<svg width="1280" height="242" viewBox="0 0 1280 242" fill="none" xmlns="http://www.w3.org/2000/svg">
<mask id="mask0_253_219" style="mask-type:alpha" maskUnits="userSpaceOnUse" x="0" y="0" width="1280" height="242">
<rect width="1280" height="242" fill="#D9D9D9"/>
</mask>
<g mask="url(#mask0_253_219)">
<path d="M171.691 206.464L171.691 137.91L68.859 137.91L68.859 206.464L171.691 206.464ZM171.691 103.632L171.691 35.0776L68.859 35.0776L68.859 103.632L171.691 103.632ZM0.304303 240.742L0.304291 0.741641L205.968 0.741644L205.968 35.0776L240.304 35.0776L240.304 103.632L205.968 103.632L205.968 137.91L240.304 137.91L240.304 206.464L205.968 206.464L205.968 240.742L0.304303 240.742Z" fill="#333333"/>
<path d="M260.123 240.742L260.123 0.741657L328.678 0.74165L328.678 206.464L500.123 206.464L500.123 240.742L260.123 240.742Z" fill="#333333"/>
<path d="M691.328 206.464L691.329 35.0776L588.497 35.0776L588.496 206.464L691.328 206.464ZM554.219 240.742L554.219 206.464L519.942 206.464L519.942 35.0776L554.219 35.0776L554.219 0.741635L725.606 0.741641L725.606 35.0776L759.942 35.0776L759.942 206.464L725.606 206.464L725.606 240.742L554.219 240.742Z" fill="#333333"/>
<path d="M814.038 240.742L814.038 206.464L779.76 206.464L779.76 35.0776L814.038 35.0776L814.038 0.741635L985.425 0.741626L985.425 35.0776L1019.76 35.0776L1019.76 69.3549L951.147 69.3549L951.147 35.0776L848.315 35.0776L848.315 206.464L951.147 206.464L951.147 172.187L1019.76 172.187L1019.76 206.464L985.425 206.464L985.425 240.742L814.038 240.742Z" fill="#333333"/>
<path d="M1039.58 240.742L1039.58 0.74165L1108.13 0.741628L1108.13 103.632L1142.41 103.632L1142.41 69.3549L1176.69 69.3549L1176.69 35.0776L1210.97 35.0775L1210.97 0.741611L1279.58 0.741638L1279.58 35.0776L1245.24 35.0776L1245.24 69.3549L1210.97 69.3549L1210.97 103.632L1176.69 103.632L1176.69 137.91L1210.97 137.91L1210.97 172.187L1245.24 172.187L1245.24 206.464L1279.58 206.464L1279.58 240.742L1210.97 240.742L1210.97 206.464L1176.69 206.464L1176.69 172.187L1142.41 172.187L1142.41 137.91L1108.13 137.91L1108.13 240.742L1039.58 240.742Z" fill="#333333"/>
</g>
</svg>
